<?xml version="1.0" encoding="UTF-8" standalone="no"?>
<!DOCTYPE svg PUBLIC "-//W3C//DTD SVG 1.1//EN" "http://www.w3.org/Graphics/SVG/1.1/DTD/svg11.dtd">
<svg width="100%" height="100%" viewBox="0 0 1080 1080" version="1.1" xmlns="http://www.w3.org/2000/svg" xmlns:xlink="http://www.w3.org/1999/xlink" xml:space="preserve" xmlns:serif="http://www.serif.com/" style="fill-rule:evenodd;clip-rule:evenodd;stroke-linejoin:round;stroke-miterlimit:2;">
    <g>
        <g transform="matrix(1.2,0,0,1.22574,468,461.91)">
            <path d="M322.5,181.188C343.211,181.188 360,197.625 360,217.9L360,320.695C360,340.971 343.211,357.407 322.5,357.407L217.5,357.407C196.789,357.407 180,340.971 180,320.695L180,217.9C180,197.625 196.789,181.188 217.5,181.188L322.5,181.188Z" style="fill:rgb(112,123,180);"/>
        </g>
        <g transform="matrix(1.2,0,0,1.22574,216,209.91)">
            <path d="M322.5,181.188C343.211,181.188 360,197.625 360,217.9L360,320.695C360,340.971 343.211,357.407 322.5,357.407L217.5,357.407C196.789,357.407 180,340.971 180,320.695L180,217.9C180,197.625 196.789,181.188 217.5,181.188L322.5,181.188Z" style="fill:rgb(90,105,175);"/>
        </g>
        <g transform="matrix(1.2,0,0,1.22574,-36,-42.0898)">
            <path d="M322.5,181.188C343.211,181.188 360,197.625 360,217.9L360,320.695C360,340.971 343.211,357.407 322.5,357.407L217.5,357.407C196.789,357.407 180,340.971 180,320.695L180,217.9C180,197.625 196.789,181.188 217.5,181.188L322.5,181.188Z" style="fill:rgb(56,72,131);"/>
        </g>
        <g transform="matrix(2.75601,0,0,2.3314,588.247,-270)">
            <path d="M80.461,167.282L80.461,115.81L129.445,115.81C156.498,115.81 178.429,141.736 178.429,173.716L178.429,521.147C178.429,553.127 156.498,579.052 129.445,579.052L80.461,579.052L80.461,527.581L125.091,527.581C130.502,527.581 134.888,522.396 134.888,516C134.888,461.75 134.888,233.113 134.888,178.863C134.888,172.467 130.502,167.282 125.091,167.282C109.421,167.282 80.461,167.282 80.461,167.282Z" style="fill:rgb(132,141,197);"/>
        </g>
        <g transform="matrix(2.75601,0,0,2.3314,-131.753,-270)">
            <path d="M145.773,579.052L96.789,579.052C69.736,579.052 47.805,553.127 47.805,521.147L47.805,173.716C47.805,141.736 69.736,115.81 96.789,115.81L145.773,115.81L145.773,167.282L101.143,167.282C95.733,167.282 91.347,172.467 91.347,178.863C91.347,233.113 91.347,461.75 91.347,516C91.347,522.396 95.733,527.581 101.143,527.581C116.814,527.581 145.773,527.581 145.773,527.581L145.773,579.052Z" style="fill:rgb(132,141,197);"/>
        </g>
    </g>
</svg>
